<svg xmlns="http://www.w3.org/2000/svg" xmlns:xlink="http://www.w3.org/1999/xlink" width="419" zoomAndPan="magnify" viewBox="0 0 314.25 367.500003" height="490" preserveAspectRatio="xMidYMid meet" version="1.0"><defs><g/><clipPath id="93821de5b6"><path d="M 53.964844 80.578125 L 259.722656 80.578125 L 259.722656 286.335938 L 53.964844 286.335938 Z M 53.964844 80.578125 " clip-rule="nonzero"/></clipPath></defs><g clip-path="url(#93821de5b6)"><path stroke-linecap="butt" transform="matrix(0.748214, 0, 0, 0.748214, 53.964622, 80.57843)" fill="none" stroke-linejoin="miter" d="M 0.000297041 -0.000407384 L 274.998817 -0.000407384 L 274.998817 274.998112 L 0.000297041 274.998112 Z M 0.000297041 -0.000407384 " stroke="#fffafa" stroke-width="8" stroke-opacity="1" stroke-miterlimit="4"/></g><g fill="#fffafa" fill-opacity="1"><g transform="translate(53.464929, 265.463115)"><g><path d="M 20.28125 0 L 20.28125 -156.0625 L 82.9375 -156.0625 C 99.09375 -156.0625 111.28125 -152.34375 119.5 -144.90625 C 127.726562 -137.476562 131.84375 -127.210938 131.84375 -114.109375 C 131.84375 -104.648438 129.4375 -96.894531 124.625 -90.84375 C 119.820312 -84.789062 112.65625 -80.164062 103.125 -76.96875 L 103.125 -74.71875 C 108.03125 -72.582031 111.992188 -69.414062 115.015625 -65.21875 C 118.046875 -61.019531 120.910156 -54.796875 123.609375 -46.546875 L 139.203125 0 L 107.5 0 L 92.234375 -46.65625 C 90.671875 -51.351562 88.910156 -55 86.953125 -57.59375 C 84.992188 -60.1875 82.5 -62.070312 79.46875 -63.25 C 76.445312 -64.425781 72.519531 -65.015625 67.6875 -65.015625 L 51.140625 -65.015625 L 51.140625 0 Z M 79.203125 -89.453125 C 94.148438 -89.453125 101.625 -96.425781 101.625 -110.375 C 101.625 -124.539062 94.148438 -131.625 79.203125 -131.625 L 51.140625 -131.625 L 51.140625 -89.453125 Z M 79.203125 -89.453125 "/></g></g></g><g fill="#fffafa" fill-opacity="1"><g transform="translate(199.39041, 265.463115)"><g><path d="M 30.109375 0.953125 C 26.335938 0.953125 23.007812 0.191406 20.125 -1.328125 C 17.238281 -2.859375 15.03125 -4.976562 13.5 -7.6875 C 11.96875 -10.394531 11.203125 -13.453125 11.203125 -16.859375 C 11.203125 -20.273438 11.96875 -23.335938 13.5 -26.046875 C 15.03125 -28.753906 17.238281 -30.890625 20.125 -32.453125 C 23.007812 -34.015625 26.335938 -34.796875 30.109375 -34.796875 C 33.953125 -34.796875 37.3125 -34.03125 40.1875 -32.5 C 43.070312 -30.96875 45.28125 -28.847656 46.8125 -26.140625 C 48.34375 -23.441406 49.109375 -20.382812 49.109375 -16.96875 C 49.109375 -11.78125 47.378906 -7.492188 43.921875 -4.109375 C 40.472656 -0.734375 35.867188 0.953125 30.109375 0.953125 Z M 30.109375 0.953125 "/></g></g></g></svg>