<svg xmlns="http://www.w3.org/2000/svg" xmlns:xlink="http://www.w3.org/1999/xlink" width="500" zoomAndPan="magnify" viewBox="0 0 375 374.999991" height="500" preserveAspectRatio="xMidYMid meet" version="1.0"><defs><g/><clipPath id="ad62c2d406"><path d="M 84.625 84.375 L 290.875 84.375 L 290.875 290.625 L 84.625 290.625 Z M 84.625 84.375 " clip-rule="nonzero"/></clipPath></defs><g clip-path="url(#ad62c2d406)"><path stroke-linecap="butt" transform="matrix(0.75, 0, 0, 0.75, 84.625444, 84.374994)" fill="none" stroke-linejoin="miter" d="M -0.000591657 0.0000073875 L 274.999426 0.0000073875 L 274.999426 275.000025 L -0.000591657 275.000025 Z M -0.000591657 0.0000073875 " stroke="#000000" stroke-width="8" stroke-opacity="1" stroke-miterlimit="4"/></g><g fill="#000000" fill-opacity="1"><g transform="translate(84.124554, 269.700923)"><g><path d="M 20.328125 0 L 20.328125 -156.453125 L 83.140625 -156.453125 C 99.335938 -156.453125 111.554688 -152.722656 119.796875 -145.265625 C 128.035156 -137.804688 132.15625 -127.515625 132.15625 -114.390625 C 132.15625 -104.898438 129.742188 -97.125 124.921875 -91.0625 C 120.109375 -85 112.925781 -80.363281 103.375 -77.15625 L 103.375 -74.90625 C 108.289062 -72.769531 112.265625 -69.59375 115.296875 -65.375 C 118.328125 -61.164062 121.203125 -54.925781 123.921875 -46.65625 L 139.546875 0 L 107.765625 0 L 92.453125 -46.765625 C 90.890625 -51.472656 89.125 -55.128906 87.15625 -57.734375 C 85.195312 -60.335938 82.703125 -62.226562 79.671875 -63.40625 C 76.640625 -64.582031 72.695312 -65.171875 67.84375 -65.171875 L 51.25 -65.171875 L 51.25 0 Z M 79.40625 -89.671875 C 94.382812 -89.671875 101.875 -96.660156 101.875 -110.640625 C 101.875 -124.835938 94.382812 -131.9375 79.40625 -131.9375 L 51.25 -131.9375 L 51.25 -89.671875 Z M 79.40625 -89.671875 "/></g></g></g><g fill="#000000" fill-opacity="1"><g transform="translate(230.398302, 269.700923)"><g><path d="M 30.171875 0.96875 C 26.390625 0.96875 23.054688 0.203125 20.171875 -1.328125 C 17.285156 -2.867188 15.070312 -4.992188 13.53125 -7.703125 C 12 -10.410156 11.234375 -13.476562 11.234375 -16.90625 C 11.234375 -20.332031 12 -23.398438 13.53125 -26.109375 C 15.070312 -28.816406 17.285156 -30.957031 20.171875 -32.53125 C 23.054688 -34.101562 26.390625 -34.890625 30.171875 -34.890625 C 34.023438 -34.890625 37.394531 -34.117188 40.28125 -32.578125 C 43.175781 -31.046875 45.390625 -28.925781 46.921875 -26.21875 C 48.453125 -23.507812 49.21875 -20.441406 49.21875 -17.015625 C 49.21875 -11.804688 47.488281 -7.503906 44.03125 -4.109375 C 40.570312 -0.722656 35.953125 0.96875 30.171875 0.96875 Z M 30.171875 0.96875 "/></g></g></g></svg>